<?xml version="1.0" encoding="utf-8"?>
<!-- Generator: Adobe Illustrator 17.0.0, SVG Export Plug-In . SVG Version: 6.00 Build 0)  -->
<!DOCTYPE svg PUBLIC "-//W3C//DTD SVG 1.1//EN" "http://www.w3.org/Graphics/SVG/1.1/DTD/svg11.dtd">
<svg version="1.1" id="Layer_1" xmlns="http://www.w3.org/2000/svg" xmlns:xlink="http://www.w3.org/1999/xlink" x="0px" y="0px"
	 width="100px" height="100px" viewBox="0 0 100 100" enable-background="new 0 0 100 100" xml:space="preserve">
<g>
	<path fill="#FFFFFF" d="M99.961,21.896v65.576c0,6.898-5.591,12.49-12.49,12.49H12.528c-6.898,0-12.49-5.591-12.49-12.49V21.896
		c0-6.898,5.591-12.49,12.49-12.49h4.684c1.726,0,3.124,1.398,3.124,3.122c0,1.725-1.398,3.124-3.124,3.124
		c-9.531,0-10.928,1.252-10.928,10.407v57.247c0,9.126,1.365,10.407,10.928,10.407h65.576c9.698,0,10.928-1.376,10.928-10.407
		V26.061c0-9.105-1.343-10.407-10.928-10.407c-1.726,0-3.124-1.399-3.124-3.124c0-1.725,1.398-3.122,3.124-3.122h4.684
		C94.37,9.407,99.961,14.998,99.961,21.896z"/>
	<path fill="#FFFFFF" d="M70.297,12.528c0,1.725-1.398,3.124-3.122,3.124H32.825c-1.725,0-3.122-1.399-3.122-3.124
		c0-1.725,1.398-3.122,3.122-3.122h34.349C68.899,9.405,70.297,10.803,70.297,12.528z"/>
	<path fill="#FFFFFF" d="M28.141,3.161v18.736c0,1.725-1.398,3.122-3.122,3.122c-1.725,0-3.122-1.398-3.122-3.122V3.161
		c0-1.725,1.398-3.122,3.122-3.122C26.744,0.039,28.141,1.436,28.141,3.161z"/>
	<path fill="#FFFFFF" d="M71.859,3.161v18.736c0,1.725,1.398,3.122,3.122,3.122c1.725,0,3.122-1.398,3.122-3.122V3.161
		c0-1.725-1.398-3.122-3.122-3.122C73.256,0.039,71.859,1.436,71.859,3.161z"/>
	<path fill="#FFFFFF" d="M31.265,57.694c0,1.787-1.449,3.236-3.236,3.236H22.01c-1.787,0-3.236-1.449-3.236-3.236v-6.019
		c0-1.787,1.449-3.236,3.236-3.236h6.019c1.787,0,3.236,1.449,3.236,3.236V57.694z"/>
	<path fill="#FFFFFF" d="M31.265,77.991c0,1.787-1.449,3.236-3.236,3.236H22.01c-1.787,0-3.236-1.449-3.236-3.236v-6.019
		c0-1.787,1.449-3.236,3.236-3.236h6.019c1.787,0,3.236,1.449,3.236,3.236V77.991z"/>
	<path fill="#FFFFFF" d="M81.226,37.397c0,1.787-1.449,3.236-3.236,3.236h-6.019c-1.787,0-3.236-1.449-3.236-3.236v-6.019
		c0-1.787,1.449-3.236,3.236-3.236h6.019c1.787,0,3.236,1.449,3.236,3.236V37.397z"/>
	<path fill="#FFFFFF" d="M64.572,37.397c0,1.787-1.449,3.236-3.236,3.236h-6.019c-1.787,0-3.236-1.449-3.236-3.236v-6.019
		c0-1.787,1.449-3.236,3.236-3.236h6.019c1.787,0,3.236,1.449,3.236,3.236V37.397z"/>
	<path fill="#FFFFFF" d="M47.918,37.397c0,1.787-1.449,3.236-3.236,3.236h-6.019c-1.787,0-3.236-1.449-3.236-3.236v-6.019
		c0-1.787,1.449-3.236,3.236-3.236h6.019c1.787,0,3.236,1.449,3.236,3.236V37.397z"/>
	<path fill="#FFFFFF" d="M81.226,57.694c0,1.787-1.449,3.236-3.236,3.236h-6.019c-1.787,0-3.236-1.449-3.236-3.236v-6.019
		c0-1.787,1.449-3.236,3.236-3.236h6.019c1.787,0,3.236,1.449,3.236,3.236V57.694z"/>
	<path fill="#FFFFFF" d="M64.572,57.694c0,1.787-1.449,3.236-3.236,3.236h-6.019c-1.787,0-3.236-1.449-3.236-3.236v-6.019
		c0-1.787,1.449-3.236,3.236-3.236h6.019c1.787,0,3.236,1.449,3.236,3.236V57.694z"/>
	<path fill="#FFFFFF" d="M47.918,57.694c0,1.787-1.449,3.236-3.236,3.236h-6.019c-1.787,0-3.236-1.449-3.236-3.236v-6.019
		c0-1.787,1.449-3.236,3.236-3.236h6.019c1.787,0,3.236,1.449,3.236,3.236V57.694z"/>
	<path fill="#FFFFFF" d="M64.572,77.991c0,1.787-1.449,3.236-3.236,3.236h-6.019c-1.787,0-3.236-1.449-3.236-3.236v-6.019
		c0-1.787,1.449-3.236,3.236-3.236h6.019c1.787,0,3.236,1.449,3.236,3.236V77.991z"/>
	<path fill="#FFFFFF" d="M47.918,77.991c0,1.787-1.449,3.236-3.236,3.236h-6.019c-1.787,0-3.236-1.449-3.236-3.236v-6.019
		c0-1.787,1.449-3.236,3.236-3.236h6.019c1.787,0,3.236,1.449,3.236,3.236V77.991z"/>
</g>
</svg>
