<?xml version="1.0" encoding="utf-8"?>
<!-- Generator: Adobe Illustrator 17.0.0, SVG Export Plug-In . SVG Version: 6.00 Build 0)  -->
<!DOCTYPE svg PUBLIC "-//W3C//DTD SVG 1.1//EN" "http://www.w3.org/Graphics/SVG/1.1/DTD/svg11.dtd">
<svg version="1.1" id="Layer_1" xmlns="http://www.w3.org/2000/svg" xmlns:xlink="http://www.w3.org/1999/xlink" x="0px" y="0px"
	 width="100px" height="100px" viewBox="0 0 100 100" enable-background="new 0 0 100 100" xml:space="preserve">
<g display="none">
	<path display="inline" fill="#FFFFFF" d="M99.961,21.896v65.576c0,6.898-5.591,12.49-12.49,12.49H12.528
		c-6.898,0-12.49-5.591-12.49-12.49V21.896c0-6.898,5.591-12.49,12.49-12.49h4.684c1.726,0,3.124,1.398,3.124,3.122
		c0,1.725-1.398,3.124-3.124,3.124c-9.531,0-10.928,1.252-10.928,10.407v57.247c0,9.126,1.365,10.407,10.928,10.407h65.576
		c9.698,0,10.928-1.376,10.928-10.407V26.061c0-9.105-1.343-10.407-10.928-10.407c-1.726,0-3.124-1.399-3.124-3.124
		c0-1.725,1.398-3.122,3.124-3.122h4.684C94.37,9.407,99.961,14.998,99.961,21.896z"/>
	<path display="inline" fill="#FFFFFF" d="M70.297,12.528c0,1.725-1.398,3.124-3.122,3.124H32.825c-1.725,0-3.122-1.399-3.122-3.124
		c0-1.725,1.398-3.122,3.122-3.122h34.349C68.899,9.405,70.297,10.803,70.297,12.528z"/>
	<path display="inline" fill="#FFFFFF" d="M28.141,3.161v18.736c0,1.725-1.398,3.122-3.122,3.122c-1.725,0-3.122-1.398-3.122-3.122
		V3.161c0-1.725,1.398-3.122,3.122-3.122C26.744,0.039,28.141,1.436,28.141,3.161z"/>
	<path display="inline" fill="#FFFFFF" d="M71.859,3.161v18.736c0,1.725,1.398,3.122,3.122,3.122c1.725,0,3.122-1.398,3.122-3.122
		V3.161c0-1.725-1.398-3.122-3.122-3.122C73.256,0.039,71.859,1.436,71.859,3.161z"/>
	<path display="inline" fill="#FFFFFF" d="M31.265,57.694c0,1.787-1.449,3.236-3.236,3.236H22.01c-1.787,0-3.236-1.449-3.236-3.236
		v-6.019c0-1.787,1.449-3.236,3.236-3.236h6.019c1.787,0,3.236,1.449,3.236,3.236V57.694z"/>
	<path display="inline" fill="#FFFFFF" d="M31.265,77.991c0,1.787-1.449,3.236-3.236,3.236H22.01c-1.787,0-3.236-1.449-3.236-3.236
		v-6.019c0-1.787,1.449-3.236,3.236-3.236h6.019c1.787,0,3.236,1.449,3.236,3.236V77.991z"/>
	<path display="inline" fill="#FFFFFF" d="M81.226,37.397c0,1.787-1.449,3.236-3.236,3.236h-6.019c-1.787,0-3.236-1.449-3.236-3.236
		v-6.019c0-1.787,1.449-3.236,3.236-3.236h6.019c1.787,0,3.236,1.449,3.236,3.236V37.397z"/>
	<path display="inline" fill="#FFFFFF" d="M64.572,37.397c0,1.787-1.449,3.236-3.236,3.236h-6.019c-1.787,0-3.236-1.449-3.236-3.236
		v-6.019c0-1.787,1.449-3.236,3.236-3.236h6.019c1.787,0,3.236,1.449,3.236,3.236V37.397z"/>
	<path display="inline" fill="#FFFFFF" d="M47.918,37.397c0,1.787-1.449,3.236-3.236,3.236h-6.019c-1.787,0-3.236-1.449-3.236-3.236
		v-6.019c0-1.787,1.449-3.236,3.236-3.236h6.019c1.787,0,3.236,1.449,3.236,3.236V37.397z"/>
	<path display="inline" fill="#FFFFFF" d="M81.226,57.694c0,1.787-1.449,3.236-3.236,3.236h-6.019c-1.787,0-3.236-1.449-3.236-3.236
		v-6.019c0-1.787,1.449-3.236,3.236-3.236h6.019c1.787,0,3.236,1.449,3.236,3.236V57.694z"/>
	<path display="inline" fill="#FFFFFF" d="M64.572,57.694c0,1.787-1.449,3.236-3.236,3.236h-6.019c-1.787,0-3.236-1.449-3.236-3.236
		v-6.019c0-1.787,1.449-3.236,3.236-3.236h6.019c1.787,0,3.236,1.449,3.236,3.236V57.694z"/>
	<path display="inline" fill="#FFFFFF" d="M47.918,57.694c0,1.787-1.449,3.236-3.236,3.236h-6.019c-1.787,0-3.236-1.449-3.236-3.236
		v-6.019c0-1.787,1.449-3.236,3.236-3.236h6.019c1.787,0,3.236,1.449,3.236,3.236V57.694z"/>
	<path display="inline" fill="#FFFFFF" d="M64.572,77.991c0,1.787-1.449,3.236-3.236,3.236h-6.019c-1.787,0-3.236-1.449-3.236-3.236
		v-6.019c0-1.787,1.449-3.236,3.236-3.236h6.019c1.787,0,3.236,1.449,3.236,3.236V77.991z"/>
	<path display="inline" fill="#FFFFFF" d="M47.918,77.991c0,1.787-1.449,3.236-3.236,3.236h-6.019c-1.787,0-3.236-1.449-3.236-3.236
		v-6.019c0-1.787,1.449-3.236,3.236-3.236h6.019c1.787,0,3.236,1.449,3.236,3.236V77.991z"/>
</g>
<g display="none">
	<g display="inline">
		<path fill="#FFFFFF" d="M100,12.5c0,6.902-5.598,12.5-12.5,12.5H39.063c-6.902,0-12.5-5.598-12.5-12.5
			c0-6.902,5.598-12.5,12.5-12.5H87.5C94.402,0,100,5.598,100,12.5z"/>
		<circle fill="#FFFFFF" cx="12.5" cy="12.5" r="12.5"/>
	</g>
	<g display="inline">
		<path fill="#FFFFFF" d="M100,50c0,6.902-5.598,12.5-12.5,12.5H39.063c-6.902,0-12.5-5.598-12.5-12.5c0-6.902,5.598-12.5,12.5-12.5
			H87.5C94.402,37.5,100,43.098,100,50z"/>
		<circle fill="#FFFFFF" cx="12.5" cy="50" r="12.5"/>
	</g>
	<g display="inline">
		<path fill="#FFFFFF" d="M100,87.5c0,6.902-5.598,12.5-12.5,12.5H39.063c-6.902,0-12.5-5.598-12.5-12.5
			c0-6.902,5.598-12.5,12.5-12.5H87.5C94.402,75,100,80.598,100,87.5z"/>
		<circle fill="#FFFFFF" cx="12.5" cy="87.5" r="12.5"/>
	</g>
</g>
<g display="none">
	<path display="inline" opacity="0.5" fill="#FFFFFF" d="M99.98,50c0,9.102-2.433,17.638-6.685,24.99C84.654,60.051,68.501,50,50,50
		S15.346,60.051,6.705,74.99C2.452,67.638,0.02,59.102,0.02,50C0.02,22.398,22.398,0.02,50,0.02S99.98,22.398,99.98,50z"/>
	<path display="inline" fill="#FFFFFF" d="M93.295,74.99C84.654,89.93,68.501,99.98,50,99.98S15.346,89.93,6.705,74.99
		C15.346,60.051,31.499,50,50,50S84.654,60.051,93.295,74.99z"/>
	<circle display="inline" fill="#FFFFFF" cx="50" cy="25.011" r="21.866"/>
</g>
<g display="none">
	<g display="inline">
		<g>
			<path fill="#FFFFFF" d="M100,50c0,21.537-17.457,38.994-38.994,38.994c-19.743,0-36.059-14.669-38.638-33.707h34.15l-7.525,7.517
				c-2.055,2.063-2.055,5.414,0.004,7.481c0.998,0.994,2.325,1.545,3.735,1.545c1.41,0,2.741-0.55,3.739-1.549l16.546-16.543
				c2.055-2.063,2.055-5.414,0-7.477L56.471,29.715c-0.998-0.994-2.329-1.545-3.739-1.545c-1.41,0-2.737,0.55-3.739,1.549
				c-2.055,2.063-2.055,5.414,0,7.477l7.525,7.517h-34.15c2.578-19.038,18.895-33.707,38.638-33.707
				C82.543,11.006,100,28.463,100,50z"/>
		</g>
		<g>
			<g>
				<g>
					<g>
						<path fill="#FFFFFF" d="M71.053,48.218L54.511,31.679c-0.471-0.475-1.105-0.737-1.778-0.737c-0.669,0-1.303,0.261-1.778,0.737
							c-0.978,0.978-0.978,2.574,0.004,3.556l12.253,12.249H2.515C1.129,47.485,0,48.614,0,50c0,1.386,1.129,2.515,2.515,2.515
							h60.697l-12.257,12.25c-0.978,0.982-0.978,2.578,0.004,3.56c0.471,0.471,1.105,0.733,1.774,0.733
							c0.673,0,1.307-0.261,1.782-0.737l16.543-16.543C72.032,50.8,72.032,49.2,71.053,48.218z"/>
					</g>
				</g>
			</g>
		</g>
	</g>
</g>
<path fill="#FFFFFF" d="M97.429,45.558c0,4.782-3.879,8.662-8.662,8.662h-1.23v37.116c0,4.785-3.877,8.664-8.662,8.664H58.663
	V77.445c0-4.785-3.879-8.664-8.664-8.664c-4.782,0-8.662,3.879-8.662,8.664V100H21.124c-4.785,0-8.662-3.879-8.662-8.664V54.22
	h-1.23c-4.782,0-8.662-3.879-8.662-8.662c0-2.372,0.954-4.52,2.495-6.084l0.041-0.041l0.378-0.355l0.003-0.003L43.632,2.897
	l1.142-1.083l0.005-0.003C46.225,0.677,48.046,0,50.024,0c1.87,0,3.599,0.605,5.004,1.628l1.592,1.51L94.507,39.07l0.01,0.01
	l0.422,0.401l0.023,0.023C96.488,41.064,97.429,43.201,97.429,45.558z"/>
</svg>
