<?xml version="1.0" encoding="utf-8"?>
<!-- Generator: Adobe Illustrator 17.0.0, SVG Export Plug-In . SVG Version: 6.00 Build 0)  -->
<!DOCTYPE svg PUBLIC "-//W3C//DTD SVG 1.1//EN" "http://www.w3.org/Graphics/SVG/1.1/DTD/svg11.dtd">
<svg version="1.1" id="Layer_1" xmlns="http://www.w3.org/2000/svg" xmlns:xlink="http://www.w3.org/1999/xlink" x="0px" y="0px"
	 width="100px" height="100px" viewBox="0 0 100 100" enable-background="new 0 0 100 100" xml:space="preserve">
<g>
	<path fill="#FFFFFF" d="M100,50c0,21.537-17.457,38.994-38.994,38.994c-19.743,0-36.059-14.669-38.638-33.707h34.15l-7.525,7.517
		c-2.055,2.063-2.055,5.414,0.004,7.481c0.998,0.994,2.325,1.545,3.735,1.545c1.41,0,2.741-0.55,3.739-1.549l16.546-16.543
		c2.055-2.063,2.055-5.414,0-7.477L56.471,29.715c-0.998-0.994-2.329-1.545-3.739-1.545c-1.41,0-2.737,0.55-3.739,1.549
		c-2.055,2.063-2.055,5.414,0,7.477l7.525,7.517h-34.15c2.578-19.038,18.895-33.707,38.638-33.707C82.543,11.006,100,28.463,100,50z
		"/>
	<g>
		<g>
			<g>
				<g>
					<path fill="#FFFFFF" d="M71.053,48.218L54.511,31.679c-0.471-0.475-1.105-0.737-1.778-0.737c-0.669,0-1.303,0.261-1.778,0.737
						c-0.978,0.978-0.978,2.574,0.004,3.556l12.253,12.249H2.515C1.129,47.485,0,48.614,0,50c0,1.386,1.129,2.515,2.515,2.515
						h60.697l-12.257,12.25c-0.978,0.982-0.978,2.578,0.004,3.56c0.471,0.471,1.105,0.733,1.774,0.733
						c0.673,0,1.307-0.261,1.782-0.737l16.543-16.543C72.032,50.8,72.032,49.2,71.053,48.218z"/>
				</g>
			</g>
		</g>
	</g>
</g>
</svg>
