<?xml version="1.0" encoding="utf-8"?>
<!-- Generator: Adobe Illustrator 17.0.0, SVG Export Plug-In . SVG Version: 6.00 Build 0)  -->
<!DOCTYPE svg PUBLIC "-//W3C//DTD SVG 1.1//EN" "http://www.w3.org/Graphics/SVG/1.1/DTD/svg11.dtd">
<svg version="1.1" id="Layer_1" xmlns="http://www.w3.org/2000/svg" xmlns:xlink="http://www.w3.org/1999/xlink" x="0px" y="0px"
	 width="100px" height="100px" viewBox="0 0 100 100" enable-background="new 0 0 100 100" xml:space="preserve">
<g>
	<g>
		<path fill="#FFFFFF" d="M100,12.5c0,6.902-5.598,12.5-12.5,12.5H39.063c-6.902,0-12.5-5.598-12.5-12.5
			c0-6.902,5.598-12.5,12.5-12.5H87.5C94.402,0,100,5.598,100,12.5z"/>
		<circle fill="#FFFFFF" cx="12.5" cy="12.5" r="12.5"/>
	</g>
	<g>
		<path fill="#FFFFFF" d="M100,50c0,6.902-5.598,12.5-12.5,12.5H39.063c-6.902,0-12.5-5.598-12.5-12.5c0-6.902,5.598-12.5,12.5-12.5
			H87.5C94.402,37.5,100,43.098,100,50z"/>
		<circle fill="#FFFFFF" cx="12.5" cy="50" r="12.5"/>
	</g>
	<g>
		<path fill="#FFFFFF" d="M100,87.5c0,6.902-5.598,12.5-12.5,12.5H39.063c-6.902,0-12.5-5.598-12.5-12.5
			c0-6.902,5.598-12.5,12.5-12.5H87.5C94.402,75,100,80.598,100,87.5z"/>
		<circle fill="#FFFFFF" cx="12.5" cy="87.5" r="12.5"/>
	</g>
</g>
</svg>
