<?xml version="1.0" encoding="utf-8"?>
<!-- Generator: Adobe Illustrator 17.0.0, SVG Export Plug-In . SVG Version: 6.00 Build 0)  -->
<!DOCTYPE svg PUBLIC "-//W3C//DTD SVG 1.1//EN" "http://www.w3.org/Graphics/SVG/1.1/DTD/svg11.dtd">
<svg version="1.1" id="Layer_1" xmlns="http://www.w3.org/2000/svg" xmlns:xlink="http://www.w3.org/1999/xlink" x="0px" y="0px"
	 width="100px" height="100px" viewBox="0 0 100 100" enable-background="new 0 0 100 100" xml:space="preserve">
<g>
	<g>
		<g opacity="0.5">
			<path fill="#FFFFFF" d="M99.98,50c0,9.102-2.433,17.638-6.685,24.99C84.654,60.051,68.501,50,50,50S15.346,60.051,6.705,74.99
				C2.452,67.638,0.02,59.102,0.02,50C0.02,22.398,22.398,0.02,50,0.02S99.98,22.398,99.98,50z"/>
		</g>
		<g>
			<path fill="#FFFFFF" d="M93.295,74.99C84.654,89.93,68.501,99.98,50,99.98S15.346,89.93,6.705,74.99C15.346,60.051,31.5,50,50,50
				S84.654,60.051,93.295,74.99z"/>
		</g>
		<g>
			<circle fill="#FFFFFF" cx="50" cy="25.011" r="21.866"/>
		</g>
	</g>
</g>
</svg>
